:SAMPLES-PER-SECOND 30
:FULLY-SPECIFIED
:DEGREES
47
root  -48.6494 14.8956 0.952746 156.235 82.317 177.99
RightUpLeg  -71.9545 -7.258 4.88143
RightLeg  136.885 18.5813 -5.44283
RightFoot  -34.5694 0.40215 2.06533
RightToes  2.85217e-009 -3.18055e-015 8.94531e-016
Spine  58.4741 -2.33665 1.50501
Spine1  11.2284 -0.400477 -1.767
HEad  -14.104 -3.84688 5.0128
LeftShoulder1  0 -2.69403e-036 -1.28585e-037
LeftArm  -2.31611 -40.7405 -84.1264
LeftForeArm  -136.489 -52.6383 166.451
LeftHand  0.14206 4.30815 15.5514
RightShoulder  -2.48481e-017 0 -8.08114e-019
RightArm  -2.71532 32.0818 79.178
RightForeArm  -98.0444 47.7126 -153.245
RightHand  2.88672 -14.7012 -19.0306
LeftUpLeg  -69.8107 -3.63602 -1.15107
LeftLeg  140.497 -10.9966 -3.69118
LeftFoot  -31.2867 -0.327853 -1.49067
LeftToes  -3.29237e-010 -4.9359e-011 -7.59376e-011
48
root  -48.4358 14.356 1.11622 148.913 81.4638 171.479
RightUpLeg  -72.3442 -7.03815 4.78026
RightLeg  138.838 20.1696 -6.26878
RightFoot  -35.1268 0.554315 2.79048
RightToes  2.85217e-009 -3.18055e-015 8.94531e-016
Spine  59.2246 -1.85069 0.751167
Spine1  11.49 -0.540537 -1.11155
HEad  -14.4869 -4.13294 5.52061
LeftShoulder1  0 -2.69403e-036 -1.28585e-037
LeftArm  -2.08334 -41.6176 -83.4258
LeftForeArm  -135.586 -52.9284 166.129
LeftHand  0.0248184 3.98553 16.367
RightShoulder  -2.48481e-017 0 -8.08114e-019
RightArm  -3.04007 32.2898 78.7664
RightForeArm  -97.5181 47.6767 -153.254
RightHand  2.89287 -14.7721 -18.8595
LeftUpLeg  -70.1008 -4.12655 -0.938029
LeftLeg  142.462 -9.27961 -4.85929
LeftFoot  -31.3782 -0.455129 -2.28745
LeftToes  -3.29237e-010 -4.9359e-011 -7.59376e-011
49
root  -48.207 14.0012 1.29979 142.73 80.3495 165.895
RightUpLeg  -72.1579 -6.82761 4.38173
RightLeg  140.451 21.3484 -6.73863
RightFoot  -35.8153 0.758704 3.72115
RightToes  2.85217e-009 -3.18055e-015 8.94531e-016
Spine  59.7009 -1.50384 0.121651
Spine1  11.664 -0.799545 -0.517738
HEad  -14.8142 -4.43666 6.08475
LeftShoulder1  0 -2.69403e-036 -1.28585e-037
LeftArm  -2.38618 -42.7213 -82.4614
LeftForeArm  -134.584 -53.0849 165.911
LeftHand  -0.134503 3.54843 17.2981
RightShoulder  -2.48481e-017 0 -8.08114e-019
RightArm  -3.20228 32.3026 78.4838
RightForeArm  -96.833 47.5812 -153.335
RightHand  2.85578 -14.6863 -18.6864
LeftUpLeg  -70.201 -4.63563 -0.572645
LeftLeg  143.74 -7.26902 -6.1464
LeftFoot  -30.7241 -0.568644 -3.13931
LeftToes  -3.29237e-010 -4.9359e-011 -7.59376e-011
50
root  -47.9658 13.8599 1.50984 138.859 79.2452 162.53
RightUpLeg  -71.3236 -6.41485 3.70175
RightLeg  141.761 21.6178 -6.56668
RightFoot  -35.9482 0.989899 4.84872
RightToes  2.85217e-009 -3.18055e-015 8.94531e-016
Spine  59.926 -1.46485 0.00223743
Spine1  11.8387 -1.01317 -0.226776
HEad  -15.0306 -4.7751 6.4976
LeftShoulder1  0 -2.69403e-036 -1.28585e-037
LeftArm  -2.59005 -43.8229 -81.7808
LeftForeArm  -133.43 -53.1543 165.756
LeftHand  -0.279669 3.09366 17.5787
RightShoulder  -2.48481e-017 0 -8.08114e-019
RightArm  -3.45047 32.3366 78.1944
RightForeArm  -96.2145 47.4391 -153.484
RightHand  2.79682 -14.5225 -18.5016
LeftUpLeg  -69.7233 -4.93 0.240949
LeftLeg  144.479 -5.01553 -7.56798
LeftFoot  -29.7423 -0.600826 -3.56612
LeftToes  -3.29237e-010 -4.9359e-011 -7.59376e-011
51
root  -47.7241 13.9362 1.74942 134.814 78.3606 158.93
RightUpLeg  -69.7673 -5.50858 2.75954
RightLeg  142.496 21.2655 -6.11603
RightFoot  -35.8722 1.2329 6.06993
RightToes  2.85217e-009 -3.18055e-015 8.94531e-016
Spine  60.0999 -1.40079 -0.0248869
Spine1  11.8302 -1.07559 -0.177931
HEad  -15.0429 -4.99672 6.77439
LeftShoulder1  0 -2.69403e-036 -1.28585e-037
LeftArm  -2.70717 -44.5901 -81.2811
LeftForeArm  -132.802 -53.0187 165.824
LeftHand  -0.351956 2.81014 17.299
RightShoulder  -2.48481e-017 0 -8.08114e-019
RightArm  -3.69024 32.5059 78.0615
RightForeArm  -95.6961 47.3589 -153.556
RightHand  2.76155 -14.4608 -18.259
LeftUpLeg  -68.3798 -4.78978 0.922107
LeftLeg  144.56 -3.23475 -8.7491
LeftFoot  -29.1633 -0.590663 -3.62602
LeftToes  -3.29237e-010 -4.9359e-011 -7.59376e-011
52
root  -47.4688 14.1759 1.99483 128.621 77.3762 153.144
RightUpLeg  -67.4604 -4.19697 1.27471
RightLeg  142.714 20.7183 -5.67965
RightFoot  -36.3738 1.54481 7.4392
RightToes  2.85217e-009 -3.18055e-015 8.94531e-016
Spine  60.3572 -1.04264 -0.555815
Spine1  11.5865 -1.14187 -0.215824
HEad  -15.0094 -5.00862 7.16981
LeftShoulder1  0 -2.69403e-036 -1.28585e-037
LeftArm  -3.2168 -45.0228 -80.3875
LeftForeArm  -133.12 -52.5914 166.222
LeftHand  -0.338663 2.80163 16.9399
RightShoulder  -2.48481e-017 0 -8.08114e-019
RightArm  -3.6379 32.6587 78.2201
RightForeArm  -95.2154 47.2588 -153.658
RightHand  2.69869 -14.3267 -17.8998
LeftUpLeg  -66.7145 -4.379 0.679065
LeftLeg  143.923 -2.29458 -9.54544
LeftFoot  -27.5218 -0.595769 -4.06944
LeftToes  -3.29237e-010 -4.9359e-011 -7.59376e-011
